<svg width="30" height="27" viewBox="0 0 30 27" fill="none" xmlns="http://www.w3.org/2000/svg">
<path d="M5.83783 16.532H25.8378C26.057 16.5321 26.2701 16.4603 26.4445 16.3275C26.6189 16.1947 26.7448 16.0083 26.8028 15.797L29.8028 4.79698C29.8436 4.64849 29.8496 4.49259 29.8203 4.34142C29.7909 4.19025 29.7271 4.0479 29.6337 3.92546C29.5403 3.80303 29.4198 3.70382 29.2818 3.63557C29.1438 3.56731 28.9918 3.53186 28.8378 3.53198H5.71283L5.33783 1.35698C5.29629 1.1231 5.17285 0.911651 4.98962 0.760487C4.80639 0.609323 4.57534 0.528319 4.33783 0.531979H1.83783C1.57261 0.531979 1.31826 0.637336 1.13072 0.824872C0.943186 1.01241 0.83783 1.26676 0.83783 1.53198C0.83783 1.7972 0.943186 2.05155 1.13072 2.23909C1.31826 2.42662 1.57261 2.53198 1.83783 2.53198H3.50283L5.64283 14.532C4.71457 14.5578 3.83461 14.9514 3.19651 15.626C2.55842 16.3007 2.21447 17.2012 2.24033 18.1295C2.26619 19.0577 2.65974 19.9377 3.3344 20.5758C4.00906 21.2139 4.90957 21.5578 5.83783 21.532H6.67783C6.42378 22.0655 6.30893 22.6546 6.344 23.2445C6.37906 23.8343 6.5629 24.4057 6.87837 24.9054C7.19384 25.405 7.63068 25.8166 8.14816 26.1019C8.66565 26.3872 9.24693 26.5368 9.83783 26.5368C10.4287 26.5368 11.01 26.3872 11.5275 26.1019C12.045 25.8166 12.4818 25.405 12.7973 24.9054C13.1128 24.4057 13.2966 23.8343 13.3317 23.2445C13.3667 22.6546 13.2519 22.0655 12.9978 21.532H18.1778C17.9238 22.0655 17.8089 22.6546 17.844 23.2445C17.8791 23.8343 18.0629 24.4057 18.3784 24.9054C18.6938 25.405 19.1307 25.8166 19.6482 26.1019C20.1656 26.3872 20.7469 26.5368 21.3378 26.5368C21.9287 26.5368 22.51 26.3872 23.0275 26.1019C23.545 25.8166 23.9818 25.405 24.2973 24.9054C24.6128 24.4057 24.7966 23.8343 24.8317 23.2445C24.8667 22.6546 24.7519 22.0655 24.4978 21.532H27.3378C27.603 21.532 27.8574 21.4266 28.0449 21.2391C28.2325 21.0515 28.3378 20.7972 28.3378 20.532C28.3378 20.2668 28.2325 20.0124 28.0449 19.8249C27.8574 19.6373 27.603 19.532 27.3378 19.532H5.83783C5.44 19.532 5.05847 19.3739 4.77717 19.0926C4.49586 18.8113 4.33783 18.4298 4.33783 18.032C4.33783 17.6342 4.49586 17.2526 4.77717 16.9713C5.05847 16.69 5.44 16.532 5.83783 16.532ZM27.5278 5.53198L25.0728 14.532H7.67283L6.06783 5.53198H27.5278ZM11.3378 23.032C11.3378 23.3286 11.2499 23.6187 11.085 23.8653C10.9202 24.112 10.6859 24.3043 10.4119 24.4178C10.1378 24.5313 9.83617 24.561 9.54519 24.5032C9.25422 24.4453 8.98695 24.3024 8.77717 24.0926C8.56739 23.8829 8.42453 23.6156 8.36665 23.3246C8.30877 23.0336 8.33848 22.732 8.45201 22.458C8.56554 22.1839 8.7578 21.9496 9.00447 21.7848C9.25115 21.62 9.54116 21.532 9.83783 21.532C10.2357 21.532 10.6172 21.69 10.8985 21.9713C11.1798 22.2526 11.3378 22.6342 11.3378 23.032ZM22.8378 23.032C22.8378 23.3286 22.7499 23.6187 22.585 23.8653C22.4202 24.112 22.1859 24.3043 21.9119 24.4178C21.6378 24.5313 21.3362 24.561 21.0452 24.5032C20.7542 24.4453 20.4869 24.3024 20.2772 24.0926C20.0674 23.8829 19.9245 23.6156 19.8667 23.3246C19.8088 23.0336 19.8385 22.732 19.952 22.458C20.0655 22.1839 20.2578 21.9496 20.5045 21.7848C20.7511 21.62 21.0412 21.532 21.3378 21.532C21.7357 21.532 22.1172 21.69 22.3985 21.9713C22.6798 22.2526 22.8378 22.6342 22.8378 23.032Z" fill="#202020"/>
</svg>
