<svg width="21" height="21" viewBox="0 0 21 21" fill="none" xmlns="http://www.w3.org/2000/svg">
<path d="M19.4167 2.5733H18V0.98997C18 0.48997 17.5 0.0733032 16.9167 0.0733032H1.33333C0.833333 0.0733032 0.5 0.48997 0.5 0.98997V11.6566C0.5 12.1566 0.833333 12.5733 1.33333 12.5733H3V14.1566C3 14.6566 3.33333 15.0733 3.83333 15.0733H15.5L20.5 20.0733V3.48997C20.5 2.98997 20 2.5733 19.4167 2.5733ZM3 3.48997V10.9066H2.16667V1.73997H16.3333V2.5733H3.83333C3.33333 2.5733 3 2.98997 3 3.48997ZM18.8333 16.0733L16.1667 13.4066H4.66667V4.23997H18.8333V16.0733Z" fill="#0D0D0D"/>
<path d="M16.3333 9.23996H7.16666V10.0733H16.3333V9.23996Z" fill="#0D0D0D"/>
<path d="M16.3333 7.5733H7.16666V8.40664H16.3333V7.5733Z" fill="#0D0D0D"/>
</svg>
