<svg width="31" height="24" viewBox="0 0 31 24" fill="none" xmlns="http://www.w3.org/2000/svg">
<path d="M30.0734 15.3784C30.0611 15.3133 30.0591 15.2445 30.0338 15.185C30.0337 15.1849 30.0338 15.1847 30.0337 15.1846L24.3979 1.89855C24.392 1.88442 24.3797 1.87578 24.3731 1.86211C24.3485 1.81088 24.3142 1.76919 24.281 1.72397C24.2534 1.68596 24.2345 1.64329 24.2011 1.60963C24.1872 1.59559 24.1713 1.58567 24.1566 1.57267C24.1174 1.53789 24.0713 1.51566 24.0268 1.48794C24.0032 1.47329 23.9818 1.45496 23.957 1.44249C23.9391 1.43348 23.9275 1.41733 23.9087 1.40936C23.9076 1.40884 23.9063 1.40906 23.9052 1.40861C23.8888 1.4017 23.8713 1.40012 23.8545 1.39411C23.8076 1.37744 23.7577 1.37458 23.708 1.36564C23.6393 1.35332 23.5728 1.34025 23.502 1.34401C23.4876 1.34468 23.4749 1.3383 23.4604 1.33965L17.5497 1.90456C17.152 1.07883 16.3142 0.503113 15.3378 0.503113C14.1964 0.503113 13.2431 1.28782 12.9657 2.34303L7.03976 2.90936C6.99596 2.91364 6.96035 2.93618 6.91874 2.94617C6.87066 2.95759 6.82093 2.95954 6.77541 2.9784C6.77068 2.98035 6.76564 2.97945 6.76091 2.98148C6.74829 2.98696 6.7407 2.99815 6.72838 3.00416C6.67805 3.02865 6.63719 3.06276 6.59264 3.09536C6.55365 3.12361 6.51151 3.14456 6.47718 3.17897C6.46411 3.19212 6.45359 3.20616 6.44135 3.21999C6.40349 3.26265 6.37945 3.31283 6.35 3.36181C6.32859 3.39719 6.29704 3.42326 6.28014 3.46225L0.644325 16.4791C0.643799 16.4804 0.644024 16.4817 0.643498 16.483C0.623141 16.5305 0.622991 16.5857 0.610821 16.6368C0.594595 16.7058 0.569355 16.7739 0.569204 16.8429C0.569204 16.8439 0.568604 16.8447 0.568604 16.8457C0.568604 20.4647 3.51091 23.4094 7.1275 23.4094C10.7447 23.4094 13.687 20.4647 13.687 16.8457C13.687 16.8447 13.6864 16.8439 13.6864 16.8429C13.6862 16.7739 13.661 16.7058 13.6448 16.6368C13.6326 16.5857 13.6325 16.5305 13.6121 16.483C13.6116 16.4817 13.6118 16.4804 13.6113 16.4791L8.47944 4.62751L13.208 4.17559C13.6321 4.91838 14.4227 5.42619 15.3378 5.42619C16.4192 5.42619 17.3293 4.72081 17.6591 3.74981L22.0928 3.32605L17.062 15.1846C17.0619 15.1847 17.062 15.1849 17.0619 15.185C17.0367 15.2445 17.0346 15.3133 17.0223 15.3784C17.012 15.4342 16.9888 15.4894 16.9888 15.545C16.9888 15.545 16.9887 15.5451 16.9887 15.5452C16.9887 19.1642 19.931 22.1077 23.5482 22.1077C27.1648 22.1077 30.1071 19.1642 30.1071 15.5452C30.1071 15.5451 30.107 15.545 30.107 15.545C30.107 15.4894 30.0838 15.4342 30.0734 15.3784ZM27.7897 14.6221H19.3061L23.5481 4.62285L27.7897 14.6221ZM7.12757 6.15245L11.3581 15.9226H2.8974L7.12757 6.15245ZM7.1275 21.5632C4.84475 21.5632 2.93834 19.929 2.50806 17.7687H11.7475C11.3173 19.929 9.41078 21.5632 7.1275 21.5632ZM15.3378 3.58004C14.9983 3.58004 14.7224 3.30359 14.7224 2.96465C14.7224 2.62571 14.9983 2.34927 15.3378 2.34927C15.6774 2.34927 15.9532 2.62571 15.9532 2.96465C15.9532 3.30359 15.6774 3.58004 15.3378 3.58004ZM23.5482 20.2615C21.2649 20.2615 19.3584 18.6283 18.9281 16.4683H28.1676C27.7373 18.6283 25.8309 20.2615 23.5482 20.2615Z" fill="#202020"/>
</svg>
