<svg width="33" height="33" viewBox="0 0 33 33" fill="none" xmlns="http://www.w3.org/2000/svg">
<path d="M9.51839 12.0125H4.18506V26.6791H9.51839V12.0125Z" fill="#EBEBEB"/>
<path d="M6.85173 9.34578C8.32448 9.34578 9.51839 8.15188 9.51839 6.67912C9.51839 5.20636 8.32448 4.01245 6.85173 4.01245C5.37897 4.01245 4.18506 5.20636 4.18506 6.67912C4.18506 8.15188 5.37897 9.34578 6.85173 9.34578Z" fill="#EBEBEB"/>
<path d="M22.1851 11.0125C21.2863 11.0149 20.3998 11.2205 19.5917 11.6138C18.7836 12.0071 18.0748 12.5779 17.5184 13.2837V12.0125H12.1851V26.6791H17.5184V17.3458C17.5184 16.6385 17.7993 15.9603 18.2994 15.4602C18.7995 14.9601 19.4778 14.6791 20.1851 14.6791C20.8923 14.6791 21.5706 14.9601 22.0707 15.4602C22.5708 15.9603 22.8517 16.6385 22.8517 17.3458V26.6791H28.1851V17.0125C28.1851 15.4212 27.5529 13.895 26.4277 12.7698C25.3025 11.6446 23.7764 11.0125 22.1851 11.0125Z" fill="#EBEBEB"/>
</svg>
