<svg width="39" height="26" viewBox="0 0 39 26" fill="none" xmlns="http://www.w3.org/2000/svg">
<path fill-rule="evenodd" clip-rule="evenodd" d="M37.2633 0.543945H1.66816C0.975 0.543945 0.54082 0.650586 0.304688 0.871485C0.0990234 1.12285 0 1.53418 0 2.14355V4.42109V6.25684V19.3812V21.3008V23.4945C0 24.5838 0.563672 25.1475 1.66816 25.1475H37.2633C38.4211 25.1475 39 24.5838 39 23.4945V21.3008V19.3812V6.24922V4.41348V2.13594C39 1.06191 38.4211 0.543945 37.2633 0.543945Z" fill="#DFDFE0"/>
<path fill-rule="evenodd" clip-rule="evenodd" d="M19.5 19.3203C21.0387 20.7295 23.0877 21.5826 25.3271 21.5826C30.126 21.5826 34.0107 17.6674 34.0107 12.8457C34.0107 8.01638 30.1184 4.10876 25.3271 4.10876C23.0801 4.10876 21.0387 4.96189 19.5 6.37107C17.748 7.97068 16.6436 10.2787 16.6436 12.8457C16.6436 15.4127 17.748 17.7283 19.5 19.3203Z" fill="#FCB131"/>
<path fill-rule="evenodd" clip-rule="evenodd" d="M32.8607 17.7207C32.8607 17.5607 32.9902 17.4388 33.1426 17.4388C33.2949 17.4388 33.4244 17.5683 33.4244 17.7207C33.4244 17.873 33.3025 18.0025 33.1426 18.0025C32.9826 18.0025 32.8607 17.873 32.8607 17.7207ZM33.1426 17.934C33.2644 17.934 33.3558 17.8349 33.3558 17.7207C33.3558 17.5988 33.2568 17.5074 33.1426 17.5074C33.0283 17.5074 32.9293 17.6064 32.9293 17.7207C32.9293 17.8349 33.0207 17.934 33.1426 17.934ZM33.1045 17.8426H33.0435V17.5912H33.1502C33.173 17.5912 33.1959 17.5912 33.2111 17.6064C33.234 17.6217 33.2416 17.6445 33.2416 17.6674C33.2416 17.6978 33.2263 17.7207 33.1959 17.7283L33.2416 17.8349H33.1806L33.1426 17.7359H33.0969V17.8426V17.7054H33.1273C33.1426 17.7054 33.1502 17.7054 33.1654 17.6978C33.173 17.6902 33.1806 17.6826 33.1806 17.6674C33.1806 17.6597 33.173 17.6445 33.1654 17.6445C33.1578 17.6369 33.1426 17.6369 33.1273 17.6369H33.0969V17.6978V17.8426H33.1045Z" fill="#FCB131"/>
<path fill-rule="evenodd" clip-rule="evenodd" d="M22.3108 11.9191C22.2804 11.6068 22.227 11.2945 22.1661 10.9974H16.8493C16.9179 10.6851 17.0016 10.3728 17.1007 10.0757H21.9147C21.8081 9.7558 21.6862 9.45111 21.5491 9.14642H17.4739C17.6263 8.8265 17.7938 8.52181 17.9766 8.22474H21.054C20.8559 7.90482 20.635 7.59252 20.3913 7.30306H18.6393C18.9059 6.97553 19.203 6.66322 19.5153 6.38139C17.9766 4.97221 15.9276 4.11908 13.6882 4.11908C8.88934 4.11908 5.00458 8.03431 5.00458 12.856C5.00458 17.6853 8.89696 21.5929 13.6882 21.5929C15.9352 21.5929 17.9766 20.7398 19.5153 19.3306C19.8276 19.0412 20.1247 18.7365 20.3913 18.4089H18.6393C18.4032 18.1195 18.1823 17.8072 17.9766 17.4872H21.054C21.2368 17.1902 21.4044 16.8779 21.5567 16.5656H17.4815C17.3444 16.2685 17.2149 15.9562 17.1083 15.6439H21.9223C22.0214 15.3392 22.1052 15.0345 22.1737 14.7222C22.2423 14.4175 22.288 14.1128 22.3184 13.7929C22.3489 13.4882 22.3641 13.1835 22.3641 12.8712C22.3565 12.5361 22.3413 12.2238 22.3108 11.9191Z" fill="#ED1B2E"/>
<path fill-rule="evenodd" clip-rule="evenodd" d="M32.8607 14.8719C32.8607 14.7195 32.9902 14.59 33.1426 14.59C33.2949 14.59 33.4244 14.7195 33.4244 14.8719C33.4244 15.0242 33.3025 15.1537 33.1426 15.1537C32.9826 15.1537 32.8607 15.0318 32.8607 14.8719ZM33.1426 15.0851C33.2644 15.0851 33.3558 14.9861 33.3558 14.8719C33.3558 14.75 33.2568 14.6586 33.1426 14.6586C33.0283 14.6586 32.9293 14.7576 32.9293 14.8719C32.9293 14.9937 33.0207 15.0851 33.1426 15.0851ZM33.1045 14.9937H33.0435V14.75H33.1502C33.173 14.75 33.1959 14.75 33.2111 14.7652C33.234 14.7805 33.2416 14.8033 33.2416 14.8262C33.2416 14.8566 33.2263 14.8795 33.1959 14.8871L33.2416 14.9937H33.1806L33.1426 14.8947H33.0969V14.9937V14.8566H33.1273C33.1426 14.8566 33.1502 14.8566 33.1654 14.849C33.173 14.8414 33.1806 14.8338 33.1806 14.8185C33.1806 14.8109 33.173 14.7957 33.1654 14.7957C33.1578 14.7881 33.1426 14.7881 33.1273 14.7881H33.0969V14.849V14.9937H33.1045Z" fill="white"/>
<path fill-rule="evenodd" clip-rule="evenodd" d="M16.5445 15.367C16.2551 15.4508 16.0494 15.4812 15.8361 15.4812C15.3943 15.4812 15.1201 15.1994 15.1201 14.6891C15.1201 14.59 15.1277 14.4834 15.1506 14.3691L15.2039 14.0187L15.2496 13.7369L15.6609 11.2766H16.5674L16.4607 11.8098H17.0244L16.8873 12.7162H16.316L16.0723 14.1863C16.0646 14.2549 16.057 14.3006 16.057 14.3387C16.057 14.5215 16.1561 14.6053 16.377 14.6053C16.4836 14.6053 16.5674 14.5976 16.6664 14.5748L16.5445 15.367Z" fill="#003473"/>
<path fill-rule="evenodd" clip-rule="evenodd" d="M19.462 15.3364C19.1421 15.4354 18.8298 15.4811 18.4946 15.4811C17.4892 15.4811 16.895 14.9251 16.895 13.8663C16.895 12.6323 17.5958 11.7183 18.5403 11.7183C19.3173 11.7183 19.8124 12.2286 19.8124 13.0284C19.8124 13.295 19.7819 13.554 19.6981 13.9196H17.8243C17.8167 13.9729 17.8167 14.0034 17.8167 14.0339C17.8167 14.4528 18.0985 14.6661 18.647 14.6661C18.9821 14.6661 19.2868 14.5976 19.6296 14.4376L19.462 15.3364ZM18.8983 13.1884C18.906 13.1122 18.906 13.0513 18.906 13.0056C18.906 12.7161 18.7384 12.5409 18.4565 12.5409C18.1595 12.5409 17.9386 12.7694 17.8548 13.1884H18.8983Z" fill="#003473"/>
<path fill-rule="evenodd" clip-rule="evenodd" d="M9.35399 15.4127H8.40946L8.95028 12.0078L7.73915 15.4127H7.0993L7.02313 12.023L6.45184 15.4127H5.53778L6.27665 10.9795H7.63251L7.67059 13.7293L8.58466 10.9795H10.0776L9.35399 15.4127Z" fill="#003473"/>
<path fill-rule="evenodd" clip-rule="evenodd" d="M11.6163 13.8054C11.5173 13.7902 11.5021 13.7902 11.4335 13.7902C10.9003 13.7902 10.6261 13.9959 10.6261 14.3386C10.6261 14.5595 10.7556 14.7043 10.9612 14.7043C11.4183 14.7119 11.6011 14.3386 11.6163 13.8054ZM12.3628 15.4127H11.5478L11.563 15.0394C11.3573 15.3213 11.0755 15.4736 10.5728 15.4736C10.1157 15.4736 9.73486 15.0699 9.73486 14.491C9.73486 14.3158 9.76533 14.1634 9.80342 14.0187C9.95576 13.4627 10.5118 13.1123 11.3649 13.097C11.4716 13.097 11.6392 13.097 11.7763 13.1123C11.8067 12.9904 11.8144 12.9447 11.8144 12.8761C11.8144 12.64 11.6163 12.5638 11.1821 12.5638C10.9155 12.5638 10.6108 12.6095 10.4052 12.6705L10.2757 12.7086L10.2224 12.7238L10.3519 11.9164C10.7937 11.7793 11.0983 11.726 11.4487 11.726C12.2562 11.726 12.6903 12.0916 12.6903 12.7847C12.6903 12.9599 12.7056 13.097 12.6446 13.5008L12.4466 14.7804L12.4161 15.009L12.3933 15.1918L12.378 15.3136L12.3628 15.4127Z" fill="#003473"/>
<path fill-rule="evenodd" clip-rule="evenodd" d="M23.9941 11.8402C24.2531 11.8402 24.4969 11.9088 24.8396 12.0763L24.992 11.1166C24.9082 11.0785 24.8854 11.0709 24.7635 11.0328L24.375 10.9338C24.2531 10.9033 24.116 10.8881 23.9561 10.8881C23.4914 10.8881 23.2172 10.8957 22.9277 11.0709C22.7754 11.1623 22.585 11.2994 22.3641 11.5431L22.2498 11.5051L21.29 12.1906L21.3357 11.8021H20.3379L19.7666 15.4051H20.7111L21.0539 13.4627C21.0539 13.4627 21.191 13.1961 21.252 13.1123C21.4271 12.8761 21.5795 12.8761 21.7775 12.8838C21.8004 12.8838 21.8309 12.8838 21.8461 12.8838C21.8156 13.097 21.8004 13.3256 21.8004 13.5693C21.8004 14.75 22.4631 15.4812 23.4838 15.4812C23.7428 15.4812 23.9713 15.4431 24.3141 15.3517L24.4816 14.3386C24.1693 14.491 23.9104 14.5672 23.6818 14.5672C23.1334 14.5672 22.8059 14.1635 22.8059 13.4855C22.7982 12.5258 23.2934 11.8402 23.9941 11.8402Z" fill="#003473"/>
<path fill-rule="evenodd" clip-rule="evenodd" d="M31.9617 10.9795L31.7561 12.2439C31.5275 11.9012 31.2609 11.7412 30.8953 11.7412C30.4002 11.7412 29.9432 12.023 29.6613 12.5562V12.5486L29.0596 12.1906L29.1053 11.8021H28.1074L27.5361 15.4051H28.4807L28.793 13.4627C28.793 13.4627 29.0367 13.1961 29.0977 13.1123C29.2348 12.9295 29.3871 12.8914 29.5166 12.8838C29.41 13.1885 29.3414 13.5465 29.3414 13.9578C29.3414 14.8566 29.8061 15.4584 30.4916 15.4584C30.8344 15.4584 31.101 15.3365 31.36 15.0547L31.3143 15.4051H32.2055L32.9215 10.9719H31.9617V10.9795ZM30.8115 14.5672C30.4916 14.5672 30.324 14.331 30.324 13.8588C30.324 13.1504 30.6287 12.6476 31.0553 12.6476C31.3828 12.6476 31.558 12.899 31.558 13.356C31.558 14.0644 31.2533 14.5672 30.8115 14.5672Z" fill="#003473"/>
<path fill-rule="evenodd" clip-rule="evenodd" d="M26.4699 13.8054C26.3709 13.7902 26.3556 13.7902 26.2871 13.7902C25.7539 13.7902 25.4797 13.9959 25.4797 14.3386C25.4797 14.5595 25.6092 14.7043 25.8148 14.7043C26.2719 14.7119 26.4547 14.3386 26.4699 13.8054ZM27.2164 15.4127H26.4013L26.4166 15.0394C26.2109 15.3213 25.9291 15.4736 25.4263 15.4736C24.9693 15.4736 24.558 15.0775 24.558 14.4834C24.5656 13.6302 25.1978 13.097 26.2185 13.097C26.3252 13.097 26.4928 13.097 26.6375 13.1123C26.6679 12.9904 26.6756 12.9447 26.6756 12.8761C26.6756 12.64 26.4775 12.5638 26.0433 12.5638C25.7767 12.5638 25.472 12.6095 25.2664 12.6705L25.1369 12.7086L25.0836 12.7238L25.2131 11.9164C25.6549 11.7793 25.9595 11.726 26.3099 11.726C27.1174 11.726 27.5515 12.0916 27.5515 12.7847C27.5515 12.9599 27.5668 13.097 27.5058 13.5008L27.3078 14.7804L27.2773 15.009L27.2545 15.1918L27.2392 15.3136L27.2164 15.4127Z" fill="#003473"/>
<path fill-rule="evenodd" clip-rule="evenodd" d="M14.3281 12.5791C14.5109 12.5791 14.7623 12.5943 15.0365 12.6324L15.1736 11.8021C14.8994 11.764 14.549 11.726 14.3281 11.726C13.2769 11.726 12.9265 12.2896 12.9265 12.9599C12.9265 13.3865 13.1322 13.714 13.6273 13.9502C14.0082 14.133 14.0767 14.1635 14.0767 14.331C14.0767 14.5519 13.8787 14.6814 13.5131 14.6814C13.2312 14.6814 12.9722 14.6357 12.6676 14.5367L12.5609 15.367L12.5838 15.3746L12.759 15.4127C12.8123 15.4203 12.8961 15.4355 13.0027 15.4508C13.2236 15.4736 13.414 15.4812 13.5359 15.4812C14.5795 15.4812 15.0137 15.0699 15.0137 14.2777C15.0137 13.7826 14.7775 13.4931 14.3053 13.2722C13.9092 13.0894 13.8635 13.0666 13.8635 12.899C13.8635 12.7238 14.0387 12.5791 14.3281 12.5791Z" fill="#003473"/>
<path fill-rule="evenodd" clip-rule="evenodd" d="M25.2434 10.8424L25.091 11.8021C24.7559 11.6345 24.5121 11.566 24.2455 11.566C23.5447 11.566 23.0496 12.2515 23.0496 13.2265C23.0496 13.8968 23.3848 14.3082 23.9332 14.3082C24.1693 14.3082 24.4207 14.232 24.733 14.0797L24.5654 15.0927C24.215 15.1841 23.9941 15.2222 23.7352 15.2222C22.7221 15.2222 22.0898 14.491 22.0898 13.3103C22.0898 11.726 22.9658 10.6215 24.215 10.6215C24.375 10.6215 24.5197 10.6367 24.634 10.6672L25.0225 10.7662C25.1367 10.7967 25.1596 10.8043 25.2434 10.8424Z" fill="white"/>
<path fill-rule="evenodd" clip-rule="evenodd" d="M22.2193 11.4974C22.1889 11.4897 22.1584 11.4897 22.1203 11.4897C21.808 11.4897 21.6328 11.6497 21.3434 12.0763L21.4271 11.5278H20.574L19.9951 15.1308H20.9473C21.2824 12.9294 21.3738 12.5485 21.8232 12.5485C21.8537 12.5485 21.8537 12.5485 21.8918 12.5485C21.9756 12.1144 22.0898 11.7944 22.2498 11.505L22.2193 11.4974Z" fill="white"/>
<path fill-rule="evenodd" clip-rule="evenodd" d="M16.7884 15.0927C16.5294 15.1765 16.3313 15.207 16.1104 15.207C15.6306 15.207 15.364 14.9252 15.364 14.4148C15.364 14.3158 15.3716 14.2091 15.3944 14.0949L15.4554 13.7445L15.5011 13.4627L15.9124 11.0023H16.8493L16.7427 11.5355H17.2225L17.0931 12.4115H16.6132L16.3618 13.9121C16.3542 13.9806 16.3466 14.0263 16.3466 14.0644C16.3466 14.2472 16.4456 14.331 16.6665 14.331C16.7731 14.331 16.8569 14.3234 16.9179 14.3006L16.7884 15.0927Z" fill="white"/>
<path fill-rule="evenodd" clip-rule="evenodd" d="M13.1626 12.6705C13.1626 13.1275 13.3835 13.4398 13.8786 13.6759C14.2595 13.8587 14.3204 13.9121 14.3204 14.072C14.3204 14.2929 14.1529 14.3996 13.7796 14.3996C13.4978 14.3996 13.2388 14.3539 12.9341 14.2548L12.8046 15.0851L12.8503 15.0927L13.0255 15.1308C13.0788 15.1384 13.1626 15.1537 13.2693 15.1613C13.4902 15.1841 13.6654 15.1917 13.7872 15.1917C14.7775 15.1917 15.2421 14.8109 15.2421 13.9882C15.2421 13.4931 15.0517 13.2037 14.5794 12.9828C14.1833 12.7999 14.1376 12.7619 14.1376 12.5943C14.1376 12.3962 14.2976 12.2972 14.6023 12.2972C14.7851 12.2972 15.0365 12.3201 15.2802 12.3505L15.4173 11.5126C15.1736 11.4746 14.8003 11.4441 14.587 11.4441C13.5283 11.4517 13.1626 12.0078 13.1626 12.6705Z" fill="white"/>
<path fill-rule="evenodd" clip-rule="evenodd" d="M32.4418 15.1385H31.5506L31.5963 14.7881C31.3373 15.0699 31.0707 15.1918 30.7279 15.1918C30.0424 15.1918 29.5853 14.5977 29.5853 13.6912C29.5853 12.4953 30.2861 11.4822 31.1164 11.4822C31.482 11.4822 31.7638 11.6346 32.0228 11.9773L32.2285 10.7129H33.1578L32.4418 15.1385ZM31.0555 14.2854C31.4972 14.2854 31.8019 13.7826 31.8019 13.0666C31.8019 12.6096 31.6267 12.3582 31.2992 12.3582C30.8726 12.3582 30.5679 12.8609 30.5679 13.5693C30.5679 14.0492 30.7355 14.2854 31.0555 14.2854Z" fill="white"/>
<path fill-rule="evenodd" clip-rule="evenodd" d="M19.6676 15.0547C19.3477 15.1537 19.0354 15.1994 18.7002 15.1994C17.649 15.1994 17.1006 14.6434 17.1006 13.5846C17.1006 12.343 17.8014 11.4365 18.7459 11.4365C19.5229 11.4365 20.018 11.9469 20.018 12.7467C20.018 13.0133 19.9875 13.2723 19.9037 13.6379H18.0299C18.0223 13.6912 18.0223 13.7217 18.0223 13.7521C18.0223 14.1711 18.3041 14.3844 18.8525 14.3844C19.1877 14.3844 19.4924 14.3158 19.8275 14.1559L19.6676 15.0547ZM19.142 12.9143C19.1496 12.8381 19.1496 12.7771 19.1496 12.7314C19.1496 12.442 18.982 12.2668 18.7002 12.2668C18.4031 12.2668 18.1822 12.4953 18.0984 12.9143H19.142Z" fill="white"/>
<path fill-rule="evenodd" clip-rule="evenodd" d="M9.59014 15.1385H8.64561L9.18643 11.726L7.98291 15.1385H7.33545L7.25928 11.7488L6.68799 15.1385H5.81201L6.54326 10.7053H7.89912L7.93721 13.4474L8.85127 10.7053H10.3214L9.59014 15.1385Z" fill="white"/>
<path fill-rule="evenodd" clip-rule="evenodd" d="M11.9133 13.5312C11.8143 13.5236 11.7686 13.516 11.7 13.516C11.1668 13.516 10.8926 13.6988 10.8926 14.0644C10.8926 14.2853 11.0221 14.4301 11.2277 14.4301C11.6162 14.4301 11.898 14.0644 11.9133 13.5312ZM12.5988 15.1385H11.8143L11.8295 14.7652C11.5934 15.0623 11.2734 15.1994 10.8393 15.1994C10.3289 15.1994 9.97852 14.7957 9.97852 14.2168C9.97852 13.3408 10.5879 12.8304 11.6314 12.8304C11.7381 12.8304 11.8752 12.8381 12.0123 12.8609C12.0428 12.739 12.0504 12.6933 12.0504 12.6248C12.0504 12.3886 11.8828 12.2972 11.4486 12.2972C11.182 12.2972 10.8773 12.3353 10.6641 12.3963L10.5346 12.4344L10.4508 12.4572L10.5803 11.6498C11.0525 11.5127 11.3572 11.4594 11.7076 11.4594C12.515 11.4594 12.9492 11.825 12.9492 12.5181C12.9492 12.6933 12.934 12.8304 12.873 13.2342L12.675 14.5138L12.6445 14.7424L12.6217 14.9252L12.6064 15.0471L12.5988 15.1385Z" fill="white"/>
<path fill-rule="evenodd" clip-rule="evenodd" d="M26.7668 13.5312C26.6678 13.5236 26.6221 13.516 26.5535 13.516C26.0203 13.516 25.7461 13.6988 25.7461 14.0644C25.7461 14.2853 25.8756 14.4301 26.0812 14.4301C26.4773 14.4301 26.7516 14.0644 26.7668 13.5312ZM27.4523 15.1385H26.6678L26.683 14.7652C26.4469 15.0623 26.127 15.1994 25.6928 15.1994C25.1824 15.1994 24.832 14.7957 24.832 14.2168C24.832 13.3408 25.4414 12.8304 26.485 12.8304C26.5916 12.8304 26.7287 12.8381 26.8658 12.8609C26.8963 12.739 26.9039 12.6933 26.9039 12.6248C26.9039 12.3886 26.7363 12.2972 26.3021 12.2972C26.0355 12.2972 25.7309 12.3353 25.5176 12.3963L25.3881 12.4344L25.3043 12.4572L25.4338 11.6498C25.9061 11.5127 26.2107 11.4594 26.5611 11.4594C27.3686 11.4594 27.8027 11.825 27.8027 12.5181C27.8027 12.6933 27.7875 12.8304 27.7266 13.2342L27.5285 14.5138L27.498 14.7424L27.4752 14.9252L27.46 15.0471L27.4523 15.1385Z" fill="white"/>
<path fill-rule="evenodd" clip-rule="evenodd" d="M29.9813 11.4974C29.9509 11.4897 29.9204 11.4897 29.8899 11.4897C29.5776 11.4897 29.4024 11.6497 29.113 12.0763L29.1967 11.5278H28.3436L27.7723 15.1308H28.7169C29.052 12.9294 29.1434 12.5485 29.5928 12.5485C29.6233 12.5485 29.6233 12.5485 29.6614 12.5485C29.7452 12.1144 29.8594 11.7944 30.0194 11.505L29.9813 11.4974Z" fill="white"/>
</svg>
