<svg width="35" height="35" viewBox="0 0 35 35" fill="none" xmlns="http://www.w3.org/2000/svg">
<path d="M18.4011 2.78436C10.2533 2.78436 6.14459 8.62565 6.14459 13.4978C6.14459 16.4472 7.26127 19.071 9.65596 20.0479C10.0488 20.2099 10.4008 20.0539 10.5148 19.6191C10.5939 19.3193 10.7816 18.56 10.865 18.2428C10.9795 17.8128 10.9352 17.6629 10.6179 17.2868C9.92763 16.473 9.48564 15.4187 9.48564 13.9242C9.48564 9.5906 12.7283 5.711 17.9291 5.711C22.5344 5.711 25.0646 8.5249 25.0646 12.2822C25.0646 17.2275 22.8762 21.4009 19.6281 21.4009C17.8338 21.4009 16.4916 19.9178 16.921 18.0976C17.4361 15.9249 18.4347 13.5811 18.4347 12.0117C18.4347 10.6083 17.6808 9.43767 16.1222 9.43767C14.2882 9.43767 12.8147 11.3352 12.8147 13.8762C12.8147 15.4949 13.3616 16.5899 13.3616 16.5899C13.3616 16.5899 11.4851 24.5423 11.1559 25.9348C10.501 28.7085 11.0575 32.1077 11.1049 32.4508C11.1325 32.6547 11.394 32.7039 11.5127 32.5503C11.6812 32.329 13.8666 29.6327 14.6085 26.9375C14.819 26.1753 15.8145 22.2243 15.8145 22.2243C16.4106 23.3614 18.1522 24.3605 20.0042 24.3605C25.5162 24.3605 29.2566 19.3355 29.2566 12.609C29.2572 7.52156 24.9489 2.78436 18.4011 2.78436Z" fill="#EBEBEB"/>
</svg>
