<svg width="21" height="21" viewBox="0 0 21 21" fill="none" xmlns="http://www.w3.org/2000/svg">
<path d="M20.7733 18.4893L15.6006 13.3165C16.6396 11.9295 17.2619 10.2124 17.2619 8.34564C17.2619 3.75477 13.5402 0.0331421 8.94937 0.0331421C4.3585 0.0331421 0.636871 3.75477 0.636871 8.34564C0.636871 12.9365 4.3585 16.6581 8.94937 16.6581C10.8161 16.6581 12.5332 16.0347 13.9202 14.9968L19.093 20.1696L20.7733 18.4893ZM3.01187 8.34445C3.01187 5.07052 5.67543 2.40695 8.94937 2.40695C12.2233 2.40695 14.8869 5.07052 14.8869 8.34445C14.8869 11.6184 12.2233 14.282 8.94937 14.282C5.67543 14.282 3.01187 11.6184 3.01187 8.34445Z" fill="#504F4F"/>
</svg>
