<svg width="21" height="21" viewBox="0 0 21 21" fill="none" xmlns="http://www.w3.org/2000/svg">
<path d="M11.4333 14.2591L7.93418 12.3508C7.47734 12.8392 6.88416 13.1789 6.23174 13.3257C5.57931 13.4726 4.8978 13.4198 4.27578 13.1742C3.65375 12.9286 3.11998 12.5016 2.74382 11.9487C2.36765 11.3958 2.1665 10.7425 2.1665 10.0737C2.1665 9.40498 2.36765 8.7517 2.74382 8.19877C3.11998 7.64585 3.65375 7.21885 4.27578 6.97328C4.8978 6.7277 5.57931 6.6749 6.23174 6.82174C6.88416 6.96857 7.47734 7.30826 7.93418 7.79664L11.4342 5.88831C11.2355 5.10171 11.3305 4.26963 11.7014 3.54806C12.0723 2.82649 12.6936 2.26496 13.4489 1.96873C14.2042 1.67249 15.0416 1.6619 15.8042 1.93892C16.5667 2.21595 17.2021 2.76157 17.5911 3.47353C17.9801 4.18548 18.0962 5.01488 17.9174 5.80626C17.7387 6.59765 17.2775 7.29667 16.6202 7.77232C15.9629 8.24796 15.1548 8.46757 14.3472 8.38997C13.5396 8.31238 12.788 7.9429 12.2333 7.35081L8.73334 9.25914C8.86768 9.79361 8.86768 10.353 8.73334 10.8875L12.2325 12.7958C12.7872 12.2037 13.5387 11.8342 14.3463 11.7566C15.1539 11.6791 15.9621 11.8987 16.6194 12.3743C17.2766 12.8499 17.7379 13.549 17.9166 14.3404C18.0953 15.1317 17.9793 15.9611 17.5903 16.6731C17.2012 17.385 16.5659 17.9307 15.8033 18.2077C15.0408 18.4847 14.2034 18.4741 13.4481 18.1779C12.6928 17.8817 12.0714 17.3201 11.7005 16.5986C11.3296 15.877 11.2346 15.0449 11.4333 14.2583V14.2591ZM5.50001 11.74C5.94204 11.74 6.36596 11.5644 6.67852 11.2518C6.99108 10.9393 7.16668 10.5153 7.16668 10.0733C7.16668 9.63128 6.99108 9.20736 6.67852 8.8948C6.36596 8.58224 5.94204 8.40664 5.50001 8.40664C5.05798 8.40664 4.63406 8.58224 4.3215 8.8948C4.00894 9.20736 3.83334 9.63128 3.83334 10.0733C3.83334 10.5153 4.00894 10.9393 4.3215 11.2518C4.63406 11.5644 5.05798 11.74 5.50001 11.74ZM14.6667 6.73998C15.1087 6.73998 15.5326 6.56438 15.8452 6.25182C16.1577 5.93926 16.3333 5.51534 16.3333 5.07331C16.3333 4.63128 16.1577 4.20736 15.8452 3.8948C15.5326 3.58224 15.1087 3.40664 14.6667 3.40664C14.2246 3.40664 13.8007 3.58224 13.4882 3.8948C13.1756 4.20736 13 4.63128 13 5.07331C13 5.51534 13.1756 5.93926 13.4882 6.25182C13.8007 6.56438 14.2246 6.73998 14.6667 6.73998ZM14.6667 16.74C15.1087 16.74 15.5326 16.5644 15.8452 16.2518C16.1577 15.9393 16.3333 15.5153 16.3333 15.0733C16.3333 14.6313 16.1577 14.2074 15.8452 13.8948C15.5326 13.5822 15.1087 13.4066 14.6667 13.4066C14.2246 13.4066 13.8007 13.5822 13.4882 13.8948C13.1756 14.2074 13 14.6313 13 15.0733C13 15.5153 13.1756 15.9393 13.4882 16.2518C13.8007 16.5644 14.2246 16.74 14.6667 16.74Z" fill="#0D0D0D"/>
</svg>
