<svg width="30" height="25" viewBox="0 0 30 25" fill="none" xmlns="http://www.w3.org/2000/svg">
<path d="M29.935 2.8562C28.8475 3.33745 27.685 3.66245 26.46 3.81245C27.71 3.06245 28.6725 1.87495 29.1225 0.462451C27.9538 1.1562 26.66 1.66245 25.2788 1.9312C24.1725 0.749951 22.5975 0.0124512 20.86 0.0124512C17.5163 0.0124512 14.81 2.72495 14.81 6.0687C14.81 6.5437 14.86 7.0062 14.9663 7.44995C9.935 7.19995 5.4725 4.78745 2.49125 1.1187C1.9725 2.01245 1.6725 3.0562 1.6725 4.16245C1.6725 6.26245 2.74125 8.1187 4.36625 9.2062C3.3725 9.1812 2.435 8.9062 1.6225 8.44995C1.6225 8.47495 1.6225 8.49995 1.6225 8.52495C1.6225 11.4625 3.71 13.9062 6.47875 14.4625C5.9725 14.6 5.435 14.675 4.885 14.675C4.4975 14.675 4.11625 14.6375 3.7475 14.5625C4.51625 16.9687 6.75375 18.7187 9.40375 18.7687C7.335 20.3937 4.7225 21.3625 1.885 21.3625C1.3975 21.3625 0.916254 21.3312 0.441254 21.275C3.11625 23.0125 6.2975 24.0125 9.71 24.0125C20.8475 24.0125 26.935 14.7812 26.935 6.77495C26.935 6.51245 26.9288 6.24995 26.9163 5.9937C28.0975 5.13745 29.1225 4.0687 29.935 2.8562Z" fill="#EBEBEB"/>
</svg>
