<svg width="49" height="49" viewBox="0 0 49 49" fill="none" xmlns="http://www.w3.org/2000/svg">
<path fill-rule="evenodd" clip-rule="evenodd" d="M40.985 12.2457H7.38505C6.06505 12.2457 4.98505 13.3257 4.98505 14.6457V35.0457C4.98505 36.3657 6.06505 37.4457 7.38505 37.4457H40.985C42.305 37.4457 43.385 36.3657 43.385 35.0457V14.6457C43.385 13.3257 42.305 12.2457 40.985 12.2457Z" fill="#ECF0F1"/>
<path fill-rule="evenodd" clip-rule="evenodd" d="M40.985 12.2457H7.38505C6.06505 12.2457 4.98505 13.3257 4.98505 14.6457V17.0457H43.385V14.6457C43.385 13.3257 42.305 12.2457 40.985 12.2457Z" fill="#34495E"/>
<path fill-rule="evenodd" clip-rule="evenodd" d="M4.98505 32.6458V35.0458C4.98505 36.3657 6.06505 37.4457 7.38505 37.4457H40.985C42.305 37.4457 43.385 36.3657 43.385 35.0458V32.6458H4.98505Z" fill="#F1C40F"/>
<path fill-rule="evenodd" clip-rule="evenodd" d="M27.185 23.8857C26.345 23.4057 25.865 23.1657 25.865 22.6857C25.865 22.3257 26.345 21.8457 27.185 21.8457C27.905 21.8457 28.505 21.9657 28.985 22.2057L29.225 22.3257L29.585 20.2857C29.105 20.0457 28.385 19.9257 27.545 19.9257C25.265 19.9257 23.585 21.2457 23.585 23.0457C23.585 24.3657 24.785 25.0857 25.625 25.5657C26.585 26.0457 26.825 26.2857 26.825 26.7657C26.825 27.3657 26.105 27.7257 25.385 27.7257C24.425 27.7257 23.945 27.6057 23.225 27.2457L22.865 27.1257L22.505 29.1657C23.105 29.4057 24.065 29.6457 25.145 29.6457C27.545 29.6457 29.225 28.4457 29.225 26.5257C29.225 25.3257 28.625 24.4857 27.185 23.8857ZM35.465 20.1657H33.665C33.065 20.1657 32.705 20.2857 32.465 20.8857L28.985 29.4057H31.385C31.385 29.4057 31.745 28.2057 31.865 27.9657C32.105 27.9657 34.505 27.9657 34.865 27.9657C34.985 28.3257 35.105 29.4057 35.105 29.4057H37.385L35.465 20.1657ZM32.585 26.1657C32.825 25.6857 33.545 23.5257 33.545 23.5257C33.545 23.5257 33.785 23.0457 33.905 22.6857L34.025 23.5257C34.025 23.5257 34.505 25.6857 34.505 26.1657H32.585ZM18.785 29.4057H21.065L22.505 20.1657H20.225L18.785 29.4057ZM16.745 20.1657L14.465 26.5257L14.225 25.2057C13.745 23.7657 12.425 22.0857 10.985 21.2457L13.025 29.4057H15.545L19.265 20.1657H16.745Z" fill="#34495E"/>
<path fill-rule="evenodd" clip-rule="evenodd" d="M13.385 20.8857C13.265 20.2857 12.785 20.1657 12.305 20.0457H8.58502V20.2857C11.465 21.0057 13.505 22.9257 14.225 25.2057L13.385 20.8857Z" fill="#F1C40F"/>
</svg>
